<?xml version="1.0" encoding="utf-8"?>
<!-- Generator: Adobe Illustrator 23.1.0, SVG Export Plug-In . SVG Version: 6.00 Build 0)  -->
<svg version="1.1" id="Layer_1" xmlns="http://www.w3.org/2000/svg" xmlns:xlink="http://www.w3.org/1999/xlink" x="0px" y="0px"
	 viewBox="0 0 1920 1080" style="enable-background:new 0 0 1920 1080;" xml:space="preserve">
<style type="text/css">
	.st0{fill:none;stroke:#000000;stroke-width:10;stroke-linecap:round;stroke-miterlimit:10;}
</style>
<g>
	<path class="st0" d="M362.97,537.79c35.89-10.29,58.56,173.77,92.71,182.83c34.19,8.8,14.34-202.84,50.47-210.96
		c36.16-7.84,53.2,227.69,87.58,234.37c34.41,6.42,20.2-249.34,56.54-255c36.36-5.38,47.74,266.91,82.28,271.21
		c34.56,4.03,26.02-281.13,62.49-284.34c36.48-2.93,42.18,291.43,76.81,293.34c34.65,1.65,31.8-298.22,68.33-298.97
		c36.53-0.48,36.54,301.24,71.2,300.77c34.66-0.73,37.51-300.6,74.02-298.9c36.51,1.98,30.82,296.34,65.43,293.5
		c34.6-3.11,43.14-288.28,79.57-284.12c36.41,4.43,25.04,276.74,59.53,271.51c34.47-5.49,48.68-261.25,84.96-254.64
		c36.24,6.89,19.21,242.43,53.52,234.82c34.28-7.87,54.13-219.51,90.18-210.45c36,9.34,13.34,193.41,47.4,183.42"/>
</g>
</svg>
